<svg width="316" height="132" viewBox="0 0 316 132" fill="none" xmlns="http://www.w3.org/2000/svg">
<g clip-path="url(#clip0)">
<path d="M313.185 130.92L314.595 130.992C314.853 129.762 315.317 128.538 315.341 127.299C315.628 111.053 316.015 94.8079 315.996 78.5624C315.996 73.4242 315.47 68.0554 314.084 63.1957C312.965 59.354 310.14 56.1558 308.051 52.6887C304.693 47.1087 301.323 41.5366 297.941 35.9726C294.495 30.2821 291.111 24.5388 287.573 18.9204C284.48 14.0078 281.359 9.10489 277.965 4.45646C276.421 2.33874 274.552 0.614793 271.507 1.01337C266.18 1.59769 260.824 1.87026 255.465 1.82971C221.236 2.09863 187.006 2.30193 152.774 2.43959C148.763 2.43959 144.748 1.35912 140.737 1.33031C135.168 1.29189 129.604 1.89695 124.035 2.0026C117.898 2.11785 111.755 2.05062 105.618 1.93057C101.946 1.85854 99.4034 4.02909 97.3576 7.07842C90.4025 17.3741 83.4426 27.6698 76.6166 38.0759C71.5735 45.7449 66.7313 53.5387 61.9177 61.3517C61.3919 62.2065 61.4396 63.5463 61.2532 64.6603L62.1423 65.203C62.8115 64.2714 63.5286 63.3734 64.1452 62.3986C68.0075 56.2807 71.736 50.0476 75.7179 44.0401C82.5726 33.6964 89.781 23.6456 96.4397 13.1435C99.4034 8.47581 102.654 5.83466 107.807 5.94031C121.688 6.24124 135.573 6.40131 149.461 6.42052C158.543 6.42052 167.602 5.94031 176.669 5.85387C194.977 5.64738 213.285 5.56575 231.593 5.37366C236.149 5.33044 240.704 4.9943 245.264 4.98469C252.884 4.96549 260.505 5.03911 268.128 5.20559C270.766 5.26801 273.548 3.76496 275.776 7.42896C280.198 14.7089 285.284 21.4607 289.767 28.6974C296.938 40.3089 303.864 52.1509 310.919 63.868C312.951 67.0812 313.96 70.8401 313.811 74.6439C313.281 90.6205 313.018 106.607 312.736 122.593C312.669 125.368 313.018 128.149 313.185 130.92ZM49.2838 132L50.5218 131.837C50.6316 131.363 50.7067 130.881 50.7465 130.396C50.9887 107.666 51.2181 84.9364 51.4348 62.2065C51.4348 61.1116 51.3679 59.8486 50.909 58.9458C48.084 53.3994 45.2302 47.8626 42.2044 42.4603C38.6958 36.2175 34.8813 30.1621 31.4204 23.8665C28.0122 17.667 25.0151 11.1698 21.5495 5.01351C20.407 2.99182 19.0351 0.71564 16.0953 1.0758C11.6594 1.61843 7.17084 1.59923 2.71098 2.03622C1.75496 2.13226 0.894533 3.20313 -0.00891113 3.8226C0.904094 4.56212 1.80276 5.89709 2.74445 5.94031C6.89838 6.13239 11.0666 6.00274 15.2254 5.88749C17.2474 5.82987 18.7627 6.36771 19.8238 8.61029C22.5724 14.3728 25.3114 20.1593 28.3755 25.7105C33.6336 35.2331 39.1786 44.5347 44.4798 54.0189C46.9224 58.3888 49.0591 62.7155 48.9205 68.4252C48.5046 85.9048 48.562 103.399 48.5477 120.888C48.5333 124.619 49.0113 128.307 49.2838 132ZM32.4386 2.04581L32.2139 3.44323C34.3363 3.75056 36.4539 4.28359 38.5763 4.3076C40.6987 4.33161 42.4004 4.78781 43.3851 7.23207C45.5648 12.636 47.8115 18.0032 50.1251 23.3335C52.0897 27.8763 54.1069 32.3903 56.215 36.8466C57.496 39.5646 59.7523 40.0016 61.1289 37.8502C67.2762 28.246 73.4473 18.6899 79.4177 8.96083C81.1625 6.11799 83.0363 4.5333 86.1386 5.01831C87.6536 5.25497 89.1927 5.29531 90.7179 5.13837C91.3441 5.07114 92.0898 4.35562 92.4197 3.69774C92.5965 3.34718 92.1616 2.28112 91.7457 1.90176C88.2514 -1.32045 83.0841 -0.307209 80.5028 4.00027C79.2791 6.03636 78.0793 8.09166 76.7504 10.0365C71.8938 17.1724 66.9368 24.1835 62.1328 31.3482C60.5171 33.7492 59.3029 34.436 57.8641 31.281C54.04 22.9253 50.1155 14.6465 46.3918 6.25246C43.5763 0.000126546 37.692 -1.8727 32.4386 2.04581ZM69.1643 74.8504L67.6538 74.6295C67.4339 76.4159 67.0228 78.2071 67.0276 79.9934C67.0659 92.9815 67.1519 105.97 67.2857 118.958C67.3383 124.917 69.1978 127.006 74.432 127.193C81.6978 127.456 88.9605 127.71 96.2199 127.957C96.8748 127.957 97.6539 128.144 98.1702 127.837C100.202 126.675 103.251 126.54 102.874 122.329C102.19 122.252 101.669 122.146 101.143 122.141C92.1711 122.069 83.2036 122.031 74.2361 121.935C70.412 121.892 69.9053 121.282 69.9005 116.941C69.9005 107.817 69.977 98.7216 69.8622 89.612C69.8001 84.6899 69.4081 79.7677 69.1643 74.8504V74.8504ZM112.185 131.967L113.113 131.89C113.257 131.438 113.355 130.973 113.404 130.502C113.404 117.772 113.457 105.051 113.323 92.3108C113.256 85.7223 112.286 84.5746 106.631 84.5986C98.2275 84.6322 89.8241 84.9924 81.4206 85.2277C80.8804 85.2277 80.1539 85.1605 79.8384 85.511C79.2074 86.2025 78.5334 87.1149 78.4043 88.0273C78.347 88.4595 79.4655 89.2951 80.1682 89.5928C80.8709 89.8906 81.6787 89.7609 82.4435 89.7705C90.651 89.8857 98.8633 89.9002 107.066 90.2075C108.242 90.2507 110.226 91.4944 110.412 92.4933C111.172 97.0011 111.619 101.556 111.751 106.126C111.942 113.234 111.751 120.355 111.779 127.467C111.842 128.973 111.981 130.475 112.195 131.967H112.185ZM14.6231 100.839L13.667 100.724C13.5093 102.165 13.189 103.605 13.2177 105.046C13.3468 111.034 13.6957 117.013 13.7292 123.001C13.7531 126.238 14.972 127.539 17.7062 127.429C24.3984 127.155 31.0524 126.992 37.7206 126.636C38.807 126.482 39.8138 125.976 40.5887 125.196C42.4339 123.467 41.6356 122.189 39.7331 121.575C38.9253 121.311 37.9931 121.45 37.1231 121.517C31.2675 121.969 25.4118 122.406 19.5609 122.958C16.8745 123.198 15.971 121.997 15.8707 118.886C15.6842 112.845 15.0724 106.847 14.6231 100.839ZM31.038 112.206L32.7828 112.047C32.4721 104.777 32.2665 97.4971 31.7072 90.2459C31.6403 89.3335 29.733 87.9169 28.6623 87.8977C22.2187 87.7872 15.7559 87.9601 9.32667 88.181C8.11939 88.2368 6.95537 88.6494 5.98058 89.3671C5.35438 89.8473 4.76166 91.3504 4.98633 92.0323C5.211 92.7142 6.49683 93.3625 7.29033 93.3241C13.2607 93.0551 19.2407 92.4645 25.2015 92.2676C29.5036 92.1235 29.4319 92.3492 29.7426 97.257C30.0438 102.251 30.5935 107.226 31.038 112.206ZM75.3881 0.994155H50.3928C50.7608 2.14666 50.7943 2.99183 51.1385 3.21753C57.5152 7.41456 64.6662 3.51045 71.4397 5.54174L71.2867 8.82637L72.0611 9.1385L75.3881 0.994155ZM88.2944 39.944C90.7705 45.3703 93.2451 50.7839 95.718 56.1846C95.809 56.4011 95.9805 56.5734 96.196 56.6648C96.8652 56.8041 97.5487 56.8617 98.2323 56.9482C98.1797 56.2855 98.2753 55.5508 98.0602 54.9649C96.0765 49.5337 94.0736 44.1122 91.9799 38.7386C91.6883 37.9847 90.8757 37.4997 90.3021 36.885L88.2944 39.944ZM105.794 14.2912L104.738 14.7041C104.738 16.212 104.403 17.8447 104.8 19.1989C106.024 23.4199 107.468 27.5642 108.973 31.6843C109.246 32.4239 110.216 32.8273 110.885 33.3843C111.148 32.4239 111.841 31.353 111.612 30.5895C110.283 25.893 108.792 21.2542 107.267 16.6346C106.961 15.7702 106.287 15.0787 105.794 14.2912ZM85.9091 72.4878C85.3806 66.2572 82.9044 60.3541 78.8346 55.6228C78.9445 62.533 81.6214 67.993 85.9091 72.5022V72.4878ZM17.8592 53.0297C21.3583 48.0547 25.713 44.6596 27.4625 38.5225C24.0064 38.8731 17.6728 48.266 17.8592 53.0297ZM18.6479 15.4004L17.0753 14.733C14.8483 20.5345 13.0899 26.5068 11.8171 32.5919L12.864 33.0385C14.8015 27.1576 16.7295 21.2782 18.6479 15.4004V15.4004ZM87.5248 98.9569C84.4416 102.65 85.0009 112.854 87.5248 113.598V98.9569ZM24.9051 66.5956L25.6604 67.4648C28.299 66.73 32.9071 60.4489 32.6155 56.468L24.9051 66.5956Z" fill="white"/>
<path d="M313.185 130.92C313.017 128.149 312.668 125.368 312.707 122.602C312.989 106.616 313.251 90.63 313.782 74.6534C313.931 70.8496 312.922 67.0907 310.89 63.8775C303.835 52.1604 296.927 40.3184 289.738 28.7069C285.254 21.4702 280.178 14.7184 275.747 7.43846C273.519 3.76966 270.737 5.27751 268.098 5.21509C260.479 5.04541 252.858 4.97178 245.235 4.99419C240.675 4.99419 236.119 5.33994 231.564 5.38316C213.256 5.56564 194.948 5.64728 176.64 5.86337C167.558 5.96422 158.504 6.43482 149.432 6.43002C135.544 6.43002 121.659 6.26995 107.778 5.94981C102.625 5.83456 99.3741 8.47571 96.4105 13.1529C89.7517 23.6551 82.5481 33.7059 75.6886 44.0496C71.7068 50.057 67.9783 56.2902 64.1159 62.408C63.4993 63.3685 62.7823 64.2808 62.113 65.2124L61.2239 64.6698C61.4295 63.5557 61.3626 62.216 61.8884 61.3612C66.7211 53.5626 71.5634 45.7688 76.5825 38.1238C83.4276 27.6937 90.378 17.398 97.333 7.0879C99.3933 4.03857 101.922 1.86802 105.593 1.94005C111.731 2.06011 117.873 2.12733 124.011 2.01208C129.58 1.90644 135.144 1.30138 140.713 1.33979C144.723 1.3686 148.739 2.46348 152.749 2.44907C186.978 2.33703 221.208 2.13374 255.441 1.83921C260.799 1.87976 266.156 1.60717 271.483 1.02285C274.528 0.643486 276.397 2.34824 277.941 4.46596C281.33 9.11439 284.456 14.0173 287.549 18.9299C291.086 24.5483 294.47 30.2916 297.917 35.9821C301.292 41.5525 304.662 47.1246 308.027 52.6982C310.116 56.1653 312.941 59.3635 314.059 63.2052C315.493 68.0409 315.971 73.4096 315.971 78.5719C315.971 94.8174 315.603 111.063 315.316 127.308" fill="white"/>
<path d="M49.2831 132C49.0298 128.307 48.5518 124.619 48.5566 120.926C48.5566 103.437 48.5136 85.9431 48.9294 68.4634C49.068 62.7297 46.9313 58.403 44.4887 54.0571C39.1875 44.573 33.633 35.2713 28.3844 25.7488C25.3203 20.1976 22.5814 14.411 19.8328 8.64853C18.7716 6.42516 17.2563 5.86811 15.2343 5.92574C11.0756 6.04099 6.90729 6.17065 2.75336 5.97857C1.79733 5.93535 0.913005 4.60037 0 3.86084C0.903444 3.24137 1.77343 2.1705 2.71989 2.07446C7.17019 1.62787 11.6587 1.64708 16.1043 1.11404C19.044 0.753887 20.4064 3.03489 21.5584 5.05177C25.0144 11.1744 28.0116 17.6525 31.4198 23.8952C34.8806 30.1907 38.6952 36.227 42.2038 42.4889C45.2296 47.8913 48.0833 53.4281 50.9084 58.9745C51.3864 59.8773 51.4438 61.1402 51.4342 62.2351C51.2271 84.965 50.9976 107.695 50.7459 130.425C50.7061 130.91 50.631 131.391 50.5212 131.866L49.2831 132Z" fill="white"/>
<path d="M32.438 2.04569C37.6961 -1.87282 43.5756 4.47523e-06 46.3672 6.25233C50.1149 14.6464 54.0489 22.9252 57.8395 31.2809C59.2736 34.4358 60.4925 33.7587 62.1082 31.3481C66.8884 24.1833 71.8692 17.1531 76.7258 10.0364C78.0547 8.09154 79.2545 6.03624 80.4783 4.00015C83.0595 -0.321737 88.2268 -1.32057 91.7211 1.90164C92.137 2.281 92.572 3.34226 92.3951 3.69761C92.0653 4.3555 91.3196 5.07101 90.6934 5.13824C89.1681 5.29519 87.6291 5.25484 86.114 5.01819C83.0117 4.53798 81.1379 6.11787 79.3932 8.96071C73.4228 18.6898 67.2516 28.2603 61.1044 37.8501C59.7277 40.0015 57.4715 39.5645 56.1904 36.8465C54.0824 32.3901 52.0652 27.8762 50.1005 23.3334C47.7965 18.003 45.5498 12.6359 43.3606 7.23195C42.3663 4.76847 40.7028 4.35069 38.5517 4.30748C36.4007 4.26426 34.3118 3.75044 32.1894 3.4431L32.438 2.04569Z" fill="white"/>
<path d="M69.1637 74.8502C69.4075 79.7676 69.7994 84.6897 69.8616 89.6118C69.9763 98.7358 69.8616 107.831 69.8998 116.941C69.8998 121.262 70.3779 121.892 74.2354 121.935C83.2029 122.031 92.1705 122.069 101.143 122.141C101.669 122.141 102.19 122.252 102.873 122.329C103.251 126.54 100.201 126.65 98.1695 127.837C97.6389 128.144 96.8741 127.976 96.2192 127.957C88.9598 127.713 81.6972 127.459 74.4314 127.193C69.1733 127.006 67.3377 124.917 67.2851 118.957C67.1608 105.973 67.0748 92.9845 67.027 79.9933C67.027 78.2069 67.4333 76.4157 67.6532 74.6293L69.1637 74.8502Z" fill="white"/>
<path d="M112.194 131.966C111.97 130.475 111.822 128.973 111.75 127.467C111.716 120.355 111.912 113.233 111.721 106.126C111.589 101.556 111.142 97.001 110.383 92.4932C110.215 91.4943 108.232 90.2506 107.037 90.2074C98.8339 89.9 90.6216 89.8856 82.4142 89.7704C81.6493 89.7704 80.8176 89.8856 80.1388 89.5927C79.46 89.2998 78.3176 88.4594 78.3749 88.0272C78.4992 87.1148 79.1732 86.2024 79.809 85.5109C80.1245 85.1604 80.8511 85.242 81.3912 85.2276C89.7947 84.9923 98.1981 84.6321 106.602 84.5985C112.28 84.5985 113.251 85.7222 113.294 92.3107C113.428 105.041 113.37 117.762 113.375 130.502C113.326 130.973 113.228 131.438 113.083 131.89L112.194 131.966Z" fill="white"/>
<path d="M14.6224 100.839C15.0669 106.847 15.6836 112.844 15.8843 118.861C15.9847 121.954 16.8881 123.183 19.5746 122.934C25.4254 122.401 31.2811 121.973 37.1368 121.493C38.0067 121.426 38.9389 121.287 39.7467 121.551C41.6588 122.165 42.4475 123.443 40.6024 125.171C39.8274 125.952 38.8206 126.457 37.7343 126.612C31.0421 126.967 24.3882 127.131 17.7199 127.404C14.9856 127.515 13.7667 126.213 13.7428 122.977C13.695 116.989 13.3604 111.01 13.2314 105.022C13.2027 103.581 13.5229 102.141 13.6807 100.7L14.6224 100.839Z" fill="white"/>
<path d="M31.0374 112.206C30.5928 107.226 30.0431 102.251 29.7276 97.2568C29.4169 92.3491 29.4982 92.1234 25.1865 92.2675C19.2113 92.4644 13.2362 93.055 7.27535 93.3239C6.48185 93.3623 5.20077 92.7189 4.97133 92.0322C4.74188 91.3455 5.33941 89.8472 5.9656 89.367C6.9404 88.6493 8.10441 88.2367 9.31169 88.1809C15.7553 87.96 22.218 87.7871 28.6473 87.8976C29.7181 87.8976 31.6253 89.3382 31.6923 90.2458C32.2515 97.4969 32.4571 104.777 32.7678 112.047L31.0374 112.206Z" fill="white"/>
<path d="M75.3874 0.994019L72.0413 9.15758L71.2669 8.84545L71.4199 5.56082C64.6465 3.52953 57.4954 7.43364 51.1187 3.2366C50.7745 3.01091 50.7411 2.16573 50.373 1.01323L75.3874 0.994019Z" fill="white"/>
<path d="M88.289 39.9438L90.3014 36.8897C90.8751 37.5044 91.6877 37.9894 91.9793 38.7433C94.073 44.1169 96.0758 49.5384 98.0596 54.9696C98.2747 55.5555 98.1791 56.2902 98.2317 56.9529C97.5481 56.8664 96.8646 56.8088 96.1954 56.6695C95.9799 56.5781 95.8084 56.4058 95.7174 56.1893C93.2349 50.7854 90.7587 45.3702 88.289 39.9438Z" fill="white"/>
<path d="M105.794 14.291C106.272 15.0642 106.96 15.7557 107.228 16.6152C108.753 21.2348 110.244 25.8737 111.573 30.5701C111.788 31.3336 111.095 32.4237 110.846 33.3649C110.196 32.8079 109.226 32.4045 108.934 31.665C107.429 27.564 105.985 23.4198 104.761 19.1795C104.365 17.8254 104.699 16.1926 104.699 14.6848L105.794 14.291Z" fill="white"/>
<path d="M85.9085 72.502C81.6063 67.9929 78.9438 62.5329 78.8339 55.6371C82.9037 60.3684 85.3799 66.2715 85.9085 72.502V72.502Z" fill="white"/>
<path d="M17.8586 53.0295C17.6722 48.2658 24.0058 38.873 27.4618 38.5224C25.7123 44.6595 21.3576 48.0546 17.8586 53.0295Z" fill="white"/>
<path d="M18.6472 15.4003C16.7352 21.2781 14.8152 27.1575 12.8872 33.0384L11.8403 32.5918C13.1131 26.5067 14.8715 20.5344 17.0985 14.7328L18.6472 15.4003Z" fill="white"/>
<path d="M87.5241 98.9615V113.603C85.0002 112.859 84.4409 102.65 87.5241 98.9615Z" fill="white"/>
<path d="M24.9141 66.6002L32.6244 56.4727C32.916 60.4536 28.3223 66.7347 25.6693 67.4694L24.9141 66.6002Z" fill="white"/>
<path d="M161.554 31.9147C161.529 32.8944 161.502 34.0453 161.473 35.3674C161.444 36.688 161.435 37.7685 161.435 38.6377C161.435 40.0207 161.435 41.5621 161.473 43.2621C161.511 44.962 161.516 45.9128 161.516 46.1049L160.292 46.1962C159.594 46.2442 158.92 46.2682 158.27 46.2682C155.368 46.3125 152.474 45.9603 149.666 45.2213C147.246 44.5589 145.028 43.3051 143.208 41.5717C142.039 40.4512 141.111 39.1011 140.483 37.6052C139.769 35.8944 139.417 34.0529 139.451 32.198C139.417 29.8237 140.104 27.4954 141.42 25.5231C142.797 23.5049 144.662 21.8721 146.841 20.7787C148.525 19.9149 150.32 19.2895 152.175 18.9203C154.22 18.499 156.302 18.2898 158.39 18.296H159.346C159.642 18.296 159.9 18.296 160.134 18.296L160.378 21.2493H159.723H158.806C156.88 21.2327 154.959 21.4113 153.069 21.7823C151.491 22.0834 149.964 22.6089 148.533 23.343C146.839 24.2127 145.409 25.5248 144.393 27.1414C143.414 28.6638 142.893 30.438 142.892 32.2509C142.814 34.26 143.36 36.2439 144.456 37.9269C145.489 39.4179 146.876 40.6274 148.49 41.4469C149.962 42.1998 151.535 42.7351 153.16 43.0364C154.836 43.353 156.537 43.5138 158.241 43.5166C158.241 43.2989 158.241 42.2344 158.241 40.3232C158.241 38.4119 158.214 35.6155 158.16 31.9339L161.554 31.9147Z" fill="white"/>
<path d="M183.294 34.3302C183.294 37.7205 183.294 40.4833 183.294 42.6186C183.294 44.7539 183.294 45.9016 183.294 46.0617C183.155 46.0617 182.524 46.1289 181.382 46.2154C180.24 46.3018 178.796 46.3498 177.013 46.3498C175.883 46.3472 174.755 46.2443 173.643 46.0425C172.636 45.8741 171.654 45.5772 170.722 45.1589C169.688 44.6956 168.782 43.985 168.084 43.0892C167.396 42.1832 167.039 41.0681 167.07 39.9294C167.049 38.7003 167.474 37.5055 168.265 36.568C169.17 35.5406 170.308 34.7481 171.583 34.2581C172.729 33.8132 173.915 33.4804 175.125 33.2641C176.795 32.946 178.482 32.7232 180.177 32.5966C180.138 31.6685 179.864 30.7659 179.379 29.9747C178.895 29.2628 178.204 28.7179 177.4 28.414C176.756 28.1585 176.084 27.9827 175.397 27.8906C174.541 27.781 173.679 27.7297 172.816 27.7369C172.204 27.7369 171.683 27.7369 171.258 27.7801L169.508 27.881L169.838 25.1534L171.052 25.0814C171.659 25.0477 172.486 25.0333 173.533 25.0333C174.982 25.0087 176.427 25.1701 177.835 25.5135C178.994 25.7975 180.068 26.3575 180.966 27.1462C181.752 27.8719 182.353 28.7759 182.72 29.7826C183.172 31.2538 183.366 32.7924 183.294 34.3302V34.3302ZM180.173 39.2763V37.5092C180.173 36.7985 180.173 35.9773 180.173 35.0505C179.57 35.0793 178.522 35.1994 177.027 35.4107C175.738 35.5698 174.471 35.8759 173.251 36.3231C172.491 36.6046 171.798 37.0449 171.219 37.6148C170.93 37.8875 170.702 38.2183 170.549 38.5856C170.395 38.953 170.321 39.3487 170.33 39.7469C170.293 40.5633 170.562 41.3639 171.086 41.9895C171.65 42.5971 172.361 43.0471 173.151 43.2957C173.87 43.5324 174.611 43.6934 175.364 43.7759C176.214 43.8825 177.069 43.9338 177.926 43.9296C178.198 43.9296 178.528 43.9296 178.925 43.9296L180.173 43.8864C180.173 43.7903 180.173 43.3437 180.173 42.537C180.173 41.7302 180.173 40.6401 180.173 39.2619V39.2763Z" fill="white"/>
<path d="M194.03 46.0233H190.808C190.808 45.8568 190.824 43.856 190.856 40.0207C190.888 36.1854 190.899 33.0048 190.89 30.4789C190.89 28.8526 190.89 26.7973 190.89 24.313C190.89 21.8288 190.866 19.0435 190.818 15.9574H194.04C194.016 18.0655 193.992 20.5002 193.982 23.271C193.973 26.0418 193.982 28.3708 193.982 30.2724C193.982 34.4118 193.997 38.0342 194.025 41.1396C194.021 44.2417 194.03 45.8696 194.03 46.0233Z" fill="white"/>
<path d="M217.649 34.8873H202.893C202.889 36.2691 203.203 37.6331 203.81 38.873C204.433 40.1119 205.386 41.1527 206.564 41.8791C207.396 42.4017 208.306 42.786 209.26 43.0172C210.451 43.2909 211.671 43.4183 212.893 43.3966C213.672 43.3966 214.379 43.3966 215.025 43.3341C215.67 43.2717 216.071 43.2669 216.22 43.2525L215.837 45.9849C215.732 45.9849 215.359 46.0233 214.757 46.0569C214.155 46.0905 213.423 46.1097 212.591 46.1097C210.662 46.149 208.741 45.86 206.908 45.255C205.432 44.7694 204.078 43.9683 202.94 42.9067C201.994 41.9938 201.228 40.9085 200.684 39.7085C200.052 38.3575 199.733 36.8796 199.752 35.3867C199.733 33.9491 199.969 32.5196 200.45 31.1656C200.925 29.8785 201.63 28.689 202.529 27.6553C203.348 26.716 204.372 25.9797 205.522 25.504C206.693 25.0027 207.953 24.7446 209.226 24.7452C210.367 24.7278 211.501 24.9215 212.572 25.3167C213.544 25.6952 214.417 26.2914 215.125 27.0598C215.959 27.9939 216.587 29.0955 216.965 30.2916C217.427 31.7791 217.658 33.3292 217.649 34.8873V34.8873ZM214.484 32.587C214.36 31.1051 213.756 29.7049 212.763 28.6013C212.282 28.1178 211.706 27.7401 211.071 27.4921C210.437 27.2441 209.758 27.1312 209.078 27.1607C208.378 27.1367 207.679 27.2516 207.023 27.4988C206.367 27.746 205.766 28.1206 205.254 28.6013C204.177 29.6876 203.439 31.0662 203.132 32.5678L214.484 32.587Z" fill="white"/>
<path d="M234.982 27.6888C233.814 28 232.665 28.3768 231.54 28.8173C229.994 29.3776 228.214 30.1379 226.2 31.0983C226.2 31.2472 226.2 31.9339 226.2 33.1584C226.2 34.383 226.2 35.5211 226.2 36.5727C226.2 38.1734 226.218 40.0943 226.253 42.3352C226.288 44.5762 226.304 45.8072 226.301 46.0281H223.079C223.079 45.7928 223.079 45.0292 223.117 43.7278C223.156 42.4265 223.16 40.2079 223.16 37.0625C223.16 35.782 223.16 34.0052 223.16 31.7322C223.16 29.4512 223.127 27.2951 223.103 25.2734H226.263V28.3899C227.736 27.5471 229.256 26.7872 230.813 26.1138C231.979 25.5917 233.18 25.1536 234.408 24.8028L234.982 27.6888Z" fill="white"/>
<path d="M242.759 21.2877H239.164V17.763H242.759V21.2877ZM242.572 46.0233H239.351C239.351 45.8024 239.379 44.4578 239.398 41.98C239.418 39.5021 239.432 37.4612 239.432 35.8477C239.432 34.4423 239.432 32.8944 239.432 31.2041C239.432 29.5137 239.408 27.5353 239.36 25.2687H242.582C242.556 27.2375 242.533 29.0799 242.51 30.7959C242.488 32.5118 242.478 34.0389 242.482 35.3771C242.482 38.5785 242.499 41.1396 242.534 43.0604C242.558 44.9765 242.572 45.9849 242.572 46.0233V46.0233Z" fill="white"/>
<path d="M264.437 34.3302C264.437 37.7205 264.437 40.4833 264.437 42.6186C264.437 44.7539 264.429 45.9016 264.413 46.0617C264.279 46.0617 263.643 46.1289 262.501 46.2154C261.358 46.3018 259.915 46.3498 258.132 46.3498C257.01 46.3458 255.89 46.243 254.786 46.0425C253.778 45.8749 252.797 45.5779 251.865 45.1589C250.829 44.6958 249.922 43.9852 249.222 43.0892C248.538 42.1817 248.182 41.0672 248.213 39.9294C248.192 38.7012 248.615 37.5071 249.403 36.568C250.308 35.5417 251.446 34.7495 252.721 34.2581C253.867 33.8132 255.053 33.4804 256.263 33.2641C257.933 32.946 259.62 32.7232 261.315 32.5966C261.278 31.6689 261.005 30.7663 260.522 29.9747C260.036 29.2615 259.344 28.7165 258.538 28.414C257.896 28.1579 257.225 27.9821 256.54 27.8906C255.687 27.7816 254.828 27.7303 253.968 27.7369C253.356 27.7369 252.835 27.7513 252.405 27.7801L250.66 27.881L250.985 25.1534L252.204 25.0813C252.807 25.0477 253.638 25.0333 254.681 25.0333C256.129 25.0084 257.575 25.1698 258.983 25.5135C260.143 25.7964 261.219 26.3565 262.118 27.1462C262.903 27.873 263.504 28.7766 263.873 29.7826C264.321 31.2544 264.512 32.793 264.437 34.3302V34.3302ZM261.311 39.2763V37.5092C261.311 36.7985 261.311 35.9773 261.311 35.0505C260.715 35.0793 259.668 35.1994 258.17 35.4107C256.881 35.5692 255.614 35.8753 254.394 36.3231C253.633 36.6046 252.941 37.0449 252.362 37.6148C252.073 37.8875 251.845 38.2183 251.691 38.5856C251.538 38.953 251.464 39.3487 251.473 39.7469C251.435 40.5633 251.705 41.3639 252.228 41.9895C252.79 42.5975 253.5 43.0478 254.289 43.2957C255.008 43.5318 255.749 43.6928 256.502 43.7759C257.352 43.8821 258.207 43.9335 259.064 43.9296C259.336 43.9296 259.671 43.9296 260.068 43.9296L261.311 43.8863C261.311 43.7903 261.311 43.3437 261.311 42.537C261.311 41.7302 261.311 40.6401 261.311 39.2619V39.2763Z" fill="white"/>
<path d="M164.212 73.3568C164.258 75.5981 163.645 77.8033 162.448 79.6956C161.286 81.4981 159.719 83.0015 157.873 84.0847C156.169 85.0819 154.33 85.8275 152.414 86.2984C150.201 86.8276 147.931 87.0824 145.655 87.0572C144.699 87.0572 143.767 87.0428 142.859 87.0139L141.353 86.9755C141.353 86.9083 141.353 85.3284 141.401 82.2455C141.449 79.1625 141.454 76.2429 141.454 73.4817C141.454 72.017 141.454 70.1202 141.454 67.8392C141.454 65.5582 141.415 62.7538 141.363 59.474H143.227H145.01C147.529 59.4413 150.044 59.6958 152.505 60.2327C154.576 60.6932 156.553 61.5052 158.351 62.6337C160.199 63.7246 161.72 65.2971 162.751 67.1846C163.783 69.0722 164.288 71.2048 164.212 73.3568V73.3568ZM160.741 73.3568C160.764 71.6738 160.374 70.0112 159.604 68.5163C158.752 66.9729 157.506 65.6851 155.995 64.7851C154.428 63.8036 152.696 63.1154 150.885 62.7538C149.213 62.3926 147.509 62.2012 145.799 62.1823H144.742C144.714 64.3401 144.696 66.1296 144.69 67.5511C144.69 68.9917 144.69 70.1106 144.69 70.9558C144.69 71.5608 144.69 72.963 144.69 75.172C144.69 77.381 144.69 80.4543 144.718 84.3488H145.761C147.552 84.344 149.337 84.1346 151.081 83.7245C152.662 83.3831 154.181 82.7983 155.584 81.991C157.081 81.1097 158.36 79.8999 159.327 78.4518C160.304 76.9222 160.796 75.1303 160.737 73.3136L160.741 73.3568Z" fill="white"/>
<path d="M186.807 75.7579H172.046C172.045 77.141 172.359 78.506 172.964 79.7484C173.592 80.9856 174.546 82.0256 175.722 82.7545C176.554 83.2771 177.465 83.6614 178.418 83.8926C179.61 84.1644 180.83 84.2917 182.051 84.272C182.826 84.272 183.538 84.272 184.183 84.2095L185.378 84.1279L185.01 86.8555C184.9 86.8555 184.532 86.8891 183.93 86.9275C183.328 86.966 182.591 86.9755 181.764 86.9755C179.836 87.0142 177.915 86.7269 176.081 86.1256C174.714 85.6939 173.454 84.9765 172.383 84.0205C171.312 83.0646 170.454 81.8918 169.867 80.5791C169.238 79.2268 168.921 77.7496 168.939 76.2573C168.918 74.8184 169.153 73.3874 169.632 72.0314C170.112 70.7465 170.818 69.559 171.717 68.5259C172.532 67.5852 173.555 66.8486 174.704 66.3746C175.875 65.8715 177.135 65.6133 178.409 65.6158C179.558 65.5938 180.701 65.7876 181.779 66.1873C182.75 66.5658 183.623 67.162 184.331 67.9304C185.167 68.8629 185.793 69.9651 186.167 71.1622C186.615 72.6518 186.831 74.202 186.807 75.7579ZM183.643 73.4624C183.517 71.9786 182.911 70.5769 181.917 69.4719C181.436 68.9886 180.859 68.6111 180.225 68.3631C179.591 68.1151 178.912 68.0021 178.232 68.0313C177.529 68.009 176.829 68.1275 176.173 68.3798C175.516 68.632 174.916 69.0131 174.408 69.5007C173.327 70.5838 172.588 71.9638 172.285 73.4672L183.643 73.4624Z" fill="white"/>
<path d="M159.432 127.183C159.432 127.308 159.384 127.664 159.322 128.221C159.26 128.778 159.202 129.407 159.15 130.074H158.476C155.476 130.122 152.487 129.697 149.618 128.816C147.245 128.098 145.068 126.845 143.251 125.152C142.077 124.027 141.142 122.674 140.502 121.176C139.805 119.505 139.462 117.706 139.494 115.894C139.471 114.217 139.812 112.556 140.493 111.024C141.131 109.598 142.016 108.298 143.108 107.183C144.889 105.458 147.039 104.164 149.393 103.399C152.117 102.453 154.982 101.98 157.864 102.001H158.786C158.786 102.246 158.825 102.64 158.868 103.183C158.911 103.725 158.954 104.306 159.011 104.935H158.313C156.535 104.943 154.762 105.132 153.022 105.497C151.369 105.811 149.775 106.383 148.299 107.192C146.674 108.088 145.307 109.389 144.331 110.972C143.42 112.469 142.94 114.191 142.945 115.947C142.923 117.704 143.353 119.437 144.193 120.979C145.124 122.595 146.491 123.913 148.136 124.782C149.673 125.656 151.338 126.28 153.069 126.631C154.847 127.009 156.659 127.2 158.476 127.203H158.868C159.059 127.203 159.25 127.198 159.432 127.183Z" fill="white"/>
<path d="M178.643 118.016C178.643 121.407 178.635 124.168 178.619 126.3C178.603 128.432 178.603 129.581 178.619 129.748L176.707 129.902C175.579 129.988 174.121 130.036 172.338 130.036C171.216 130.032 170.096 129.929 168.992 129.729C167.986 129.56 167.007 129.263 166.076 128.845C165.04 128.382 164.133 127.671 163.433 126.775C162.747 125.868 162.39 124.754 162.419 123.616C162.399 122.387 162.824 121.192 163.614 120.254C164.519 119.228 165.657 118.436 166.932 117.944C168.078 117.499 169.264 117.167 170.474 116.95C172.144 116.632 173.831 116.409 175.526 116.283C175.487 115.355 175.213 114.452 174.728 113.661C174.245 112.948 173.553 112.402 172.749 112.1C172.107 111.845 171.436 111.669 170.751 111.577C169.898 111.468 169.039 111.416 168.179 111.423C167.567 111.423 167.046 111.437 166.616 111.466L164.871 111.567L165.196 108.84L166.411 108.767C167.018 108.734 167.845 108.719 168.892 108.719C170.34 108.692 171.786 108.854 173.194 109.2C174.354 109.484 175.43 110.044 176.329 110.832C177.113 111.558 177.714 112.46 178.084 113.464C178.527 114.938 178.717 116.478 178.643 118.016V118.016ZM175.517 122.958V121.195C175.517 120.485 175.517 119.663 175.517 118.737C174.919 118.737 173.868 118.881 172.371 119.092C171.083 119.256 169.817 119.562 168.595 120.004C167.836 120.291 167.145 120.733 166.564 121.301C166.275 121.574 166.047 121.905 165.895 122.272C165.743 122.64 165.669 123.035 165.679 123.433C165.639 124.25 165.909 125.051 166.435 125.676C166.997 126.282 167.707 126.731 168.495 126.977C169.212 127.224 169.954 127.393 170.708 127.481C171.558 127.585 172.414 127.637 173.27 127.635C173.543 127.635 173.877 127.635 174.269 127.635L175.517 127.592C175.517 127.496 175.517 127.044 175.517 126.238C175.517 125.431 175.517 124.326 175.517 122.958V122.958Z" fill="white"/>
<path d="M202.749 129.705H199.628V127.304C198.489 128.03 197.298 128.672 196.067 129.224C194.759 129.861 193.327 130.2 191.874 130.218C189.997 130.218 188.527 129.658 187.462 128.538C186.398 127.417 185.867 125.845 185.87 123.822C185.87 122.727 185.88 121.426 185.899 119.918C185.899 118.405 185.933 117.31 185.933 116.624C185.933 115.38 185.933 113.848 185.88 112.018C185.827 110.189 185.827 109.166 185.827 108.936H189.054C189.054 109.112 189.041 110.096 189.016 111.889C188.99 113.682 188.976 115.109 188.973 116.172C188.973 117.133 188.973 118.309 188.973 119.702C188.973 121.094 188.973 122.092 188.973 122.694C188.997 124.307 189.279 125.488 189.809 126.242C190.34 126.996 191.196 127.371 192.381 127.371C193.764 127.335 195.124 127.008 196.372 126.41C197.488 125.937 198.557 125.36 199.566 124.686C199.566 124.523 199.566 123.769 199.566 122.42C199.566 121.07 199.566 119.394 199.566 117.387C199.566 115.953 199.548 114.234 199.513 112.23C199.478 110.226 199.46 109.136 199.46 108.96H202.687C202.687 109.19 202.673 109.958 202.644 111.265C202.615 112.571 202.603 114.796 202.606 117.939C202.606 119.702 202.606 121.253 202.606 122.583C202.606 123.913 202.72 126.29 202.749 129.705Z" fill="white"/>
<path d="M223.834 127.039L223.59 129.786H222.467C220.815 129.805 219.166 129.644 217.548 129.306C216.119 129.005 214.738 128.504 213.447 127.817C211.87 126.981 210.538 125.744 209.585 124.23C208.66 122.735 208.179 121.006 208.198 119.246C208.186 117.649 208.625 116.082 209.465 114.727C210.297 113.367 211.429 112.217 212.773 111.365C214.128 110.519 215.615 109.905 217.171 109.55C218.905 109.13 220.683 108.92 222.467 108.926H223.304L223.466 111.673H222.835C221.541 111.655 220.247 111.749 218.968 111.951C217.898 112.135 216.852 112.441 215.851 112.864C214.547 113.378 213.43 114.279 212.649 115.447C211.881 116.555 211.467 117.872 211.463 119.222C211.415 120.647 211.804 122.054 212.577 123.251C213.319 124.338 214.337 125.205 215.526 125.762C216.549 126.248 217.636 126.586 218.753 126.766C220.007 126.976 221.277 127.079 222.548 127.073H223.834V127.039Z" fill="white"/>
<path d="M243.39 118.016C243.39 121.407 243.39 124.168 243.39 126.3C243.39 128.432 243.39 129.581 243.39 129.748L241.478 129.901C240.35 129.988 238.892 130.036 237.113 130.036C235.991 130.032 234.872 129.929 233.767 129.729C232.76 129.56 231.779 129.263 230.847 128.845C229.811 128.382 228.903 127.671 228.203 126.775C227.517 125.817 227.164 124.658 227.198 123.478C227.231 122.298 227.65 121.162 228.39 120.244C229.293 119.216 230.431 118.423 231.707 117.935C232.852 117.49 234.036 117.158 235.244 116.941C236.915 116.623 238.602 116.4 240.297 116.273C240.26 115.345 239.986 114.443 239.504 113.651C239.02 112.938 238.329 112.393 237.525 112.09C236.881 111.835 236.208 111.659 235.522 111.567C234.669 111.458 233.81 111.407 232.95 111.413C232.338 111.413 231.817 111.413 231.392 111.457L229.642 111.557L229.972 108.83L231.186 108.758C231.788 108.724 232.62 108.71 233.667 108.71C235.116 108.683 236.562 108.844 237.969 109.19C239.128 109.474 240.202 110.034 241.1 110.823C241.885 111.547 242.487 112.449 242.854 113.454C243.293 114.933 243.474 116.476 243.39 118.016ZM240.268 122.958V121.195C240.268 120.485 240.268 119.663 240.268 118.737C239.672 118.759 238.626 118.877 237.128 119.092C235.84 119.256 234.573 119.562 233.352 120.004C232.592 120.29 231.9 120.732 231.32 121.301C231.031 121.574 230.802 121.904 230.649 122.272C230.496 122.639 230.422 123.035 230.431 123.433C230.393 124.249 230.663 125.05 231.186 125.676C231.748 126.282 232.459 126.731 233.246 126.977C233.966 127.224 234.709 127.393 235.464 127.481C236.314 127.585 237.17 127.637 238.027 127.635C238.299 127.635 238.629 127.635 239.026 127.635L240.268 127.592C240.268 127.496 240.268 127.044 240.268 126.237C240.264 125.416 240.268 124.326 240.268 122.958V122.958Z" fill="white"/>
</g>
<defs>
<clipPath id="clip0">
</clipPath>
</defs>
</svg>
